<?xml version="1.0" encoding="UTF-8"?>
<svg viewBox="0 0 128 128" xmlns="http://www.w3.org/2000/svg" xmlns:xlink="http://www.w3.org/1999/xlink">
 <defs>
  <linearGradient id="n">
   <stop offset="0"/>
   <stop stop-opacity="0" offset="1"/>
  </linearGradient>
  <linearGradient id="a">
   <stop stop-color="#fff" offset="0"/>
   <stop stop-color="#fff" stop-opacity="0" offset="1"/>
  </linearGradient>
  <linearGradient id="o">
   <stop stop-color="#bbb" offset="0"/>
   <stop stop-color="#888" offset="1"/>
  </linearGradient>
  <filter id="p" color-interpolation-filters="sRGB">
   <feGaussianBlur stdDeviation="0.67289"/>
  </filter>
  <radialGradient id="q" cx="69.13" cy="121.18" r="26.921" gradientTransform="matrix(1 0 0 .2723 0 88.179)" gradientUnits="userSpaceOnUse" xlink:href="#n"/>
  <linearGradient id="r" x1="69.23" x2="82.03" y1="54.977" y2="47.24" gradientUnits="userSpaceOnUse" xlink:href="#o"/>
  <radialGradient id="s" cx="40.11" cy="30.32" r="40.578" gradientTransform="matrix(1.3146 -1.147 1.2797 1.4667 -50.811 33.67)" gradientUnits="userSpaceOnUse">
   <stop stop-color="#a4c0e4" offset="0"/>
   <stop stop-color="#2c72c7" offset="1"/>
  </radialGradient>
  <radialGradient id="t" cx="48.766" cy="2.415" r="28.18" gradientTransform="matrix(-2.8095 0 0 -.99945 185.07 95.475)" gradientUnits="userSpaceOnUse" xlink:href="#a"/>
  <linearGradient id="u" x2="0" y1="6.69" y2="88.5" gradientUnits="userSpaceOnUse" xlink:href="#o"/>
  <linearGradient id="v" x2="0" y1="7.444" y2="26.971" gradientTransform="translate(-.70794 -.31044)" gradientUnits="userSpaceOnUse" xlink:href="#a"/>
  <radialGradient id="w" cx="49.21" cy="-4.455" r="28.18" gradientTransform="matrix(-2.7857 .36534 -.14027 -1.0696 196.89 84.155)" gradientUnits="userSpaceOnUse" xlink:href="#n"/>
  <linearGradient id="x" x1="56.897" x2="6.672" y1="109.65" y2="120.91" gradientUnits="userSpaceOnUse">
   <stop stop-color="#b3925d" offset="0"/>
   <stop stop-color="#75511a" offset="1"/>
  </linearGradient>
  <linearGradient id="y" x1="109.38" x2="41.603" y1="56.957" y2="66.5" gradientUnits="userSpaceOnUse" xlink:href="#a"/>
 </defs>
 <g transform="translate(-.40724 -.48437)">
  <path transform="matrix(.77934 0 0 .63793 52.54 46.022)" d="m96.055 121.18a26.921 7.3305 0 1 1 -53.841 0 26.921 7.3305 0 1 1 53.841 0z" fill="url(#q)" opacity=".2"/>
  <g transform="translate(-3.0333 -3.0333)">
   <path d="m62.139 73.22 37.508 37.413 11.834-10.66-37.495-37.413-11.847 10.66z" fill="#888"/>
   <path transform="matrix(.030174 -1.179 1.184 .030047 20.508 171.72)" d="m82.906 38.062-27.125 27.125 6.5312 6.5312 27.125-27.125-6.5312-6.5312z" fill="url(#r)"/>
   <path transform="matrix(.030174 -1.179 1.184 .030047 -4.3648 145.97)" d="m82.906 38.062-27.125 27.125 6.5312 6.5312 27.125-27.125-6.5312-6.5312z" filter="url(#p)"/>
   <path d="m48.042 7.0333c-22.442 0-40.562 18.12-40.562 40.562s18.12 40.563 40.562 40.562c22.442 0 40.594-18.123 40.594-40.562 0-22.44-18.151-40.562-40.594-40.562z" fill="url(#s)"/>
   <path d="m48.073 74.065c14.861 0 26.469-11.608 26.469-26.469s-11.608-26.469-26.469-26.469c-14.86 0-26.5 11.625-26.5 26.469s11.64 26.469 26.5 26.469z" fill="none" stroke="url(#t)" stroke-width="3.4"/>
   <path d="m48.042 4.0021c-24.08 0-43.594 19.513-43.594 43.594 0 24.08 19.513 43.594 43.594 43.594 24.08 0 43.625-19.513 43.625-43.594 0-24.08-19.545-43.594-43.625-43.594zm0.21875 15.562c15.423 0 27.875 12.425 27.875 27.844 3e-6 15.419-12.452 27.844-27.875 27.844-15.423 3e-6 -27.844-12.421-27.844-27.844-1e-6 -15.423 12.421-27.844 27.844-27.844z" fill="#7a7a7a"/>
   <path d="m48.042 6.6896c-22.631 0-40.906 18.275-40.906 40.906s18.275 40.906 40.906 40.906 40.938-18.277 40.938-40.906-18.306-40.906-40.938-40.906zm0 10.062c17.197 0 30.875 13.658 30.875 30.844 1e-6 17.186-13.678 30.844-30.875 30.844-17.197 2e-6 -30.844-13.647-30.844-30.844s13.647-30.844 30.844-30.844z" fill="url(#u)"/>
   <path d="m48.042 8.2833c-21.78 0-39.312 17.532-39.312 39.312s17.532 39.313 39.312 39.312c21.78 0 39.344-17.536 39.344-39.312s-17.564-39.312-39.344-39.312z" fill="none" opacity=".372" stroke="url(#v)" stroke-width="2.3"/>
   <path d="m48.073 74.065c14.861 0 26.469-11.608 26.469-26.469s-11.608-26.469-26.469-26.469c-14.86 0-26.5 11.625-26.5 26.469s11.64 26.469 26.5 26.469z" fill="none" opacity=".668" stroke="url(#w)" stroke-width="3.4"/>
   <path d="m80.14 89.764c-1.5763 1.5297-2.1905 4.3556-1.2257 5.4063l27.954 30.345c2.5484 2.766 5.9803-0.47134 7.804-2.2339l8.3466-8.0995c1.8166-1.7699 4.7003-6.0621 2.3636-8.2401l-29.758-27.965c-1.0349-0.97555-3.858-0.42308-5.4374 1.0809 0 0-0.01614-6e-3 -0.01849 4e-3l-10.028 9.7026z" fill="#75511a"/>
   <path transform="matrix(.19685 -.88231 .87768 -.17731 15.401 150.9)" d="m53.5 63.5c-0.66092 0.0022-1.29 0.26363-1.4062 0.375l-41.031 39.375c-1.4253 1.3682-1.2686 1.807-1.0312 2.5312 0.23731 0.72428 1.0933 1.7134 1.875 2.5h-0.03125l7.3438 7.3438c0.45497 0.45214 1.6823 1.2416 2.7812 1.4688s1.9072 0.18171 2.875-0.84375l38.719-40.812c0.11686-0.12292 0.40551-0.71796 0.40625-1.375s-0.2719-1.2376-0.375-1.3438a2.2701 2.2701 0 0 1 -0.15625 -0.21875l-0.125-0.15625-8.5-8.5c-0.095525-0.095525-0.68286-0.34596-1.3438-0.34375z" fill="url(#x)"/>
   <path transform="matrix(.19685 -.88231 .87768 -.17731 15.401 150.9)" d="m53.5 64.938c-0.14419 4.81e-4 -0.32769 0.01839-0.46875 0.0625-0.02918 0.0091-0.03995 0.02282-0.0625 0.03125l-40.906 39.25c-0.63897 0.61335-0.79434 0.91945-0.78125 0.875 0.01309-0.0444-0.0273-0.18195 0.09375 0.1875 0.04125 0.1259 0.80392 1.2056 1.5312 1.9375l7.3125 7.3438c0.13451 0.13367 1.3983 0.9252 2.0625 1.0625 0.46322 0.0957 0.71868 0.10024 0.875 0.0625 0.15632-0.0377 0.33225-0.0923 0.6875-0.46875l38.719-40.812c-0.32885 0.3459-0.10594 0.12316-0.0625 0s0.06236-0.28582 0.0625-0.40625c1.47e-4 -0.13105-0.02244-0.31846-0.0625-0.4375-0.02003-0.05952-0.02589-0.08309-0.03125-0.09375a1.4244 1.4244 0 0 1 -0.125 -0.15625v-0.03125l-0.125-0.125-8.2188-8.2188h-0.03125c-0.12475-0.03838-0.3196-0.063-0.46875-0.0625zm8.9688 8.5938c-0.0054-0.01066-0.08284-0.02645 0.125 0.1875l0.0625-0.0625a1.4244 1.4244 0 0 1 -0.1875 -0.125z" fill="none" stroke="url(#y)" stroke-linecap="round" stroke-linejoin="round" stroke-width="2.163"/>
  </g>
 </g>
</svg>
